solid OpenSCAD_Model
  facet normal 0 0 -1
    outer loop
      vertex 0 10 0
      vertex 0 29.5 0
      vertex 10 0 0
    endloop
  endfacet
  facet normal 0 0 -1
    outer loop
      vertex 0 29.5 0
      vertex 29.5 0 0
      vertex 10 0 0
    endloop
  endfacet
  facet normal 0 0 1
    outer loop
      vertex 10 0 5
      vertex 0 29.5 5
      vertex 0 10 5
    endloop
  endfacet
  facet normal 0 -0 1
    outer loop
      vertex 10 0 5
      vertex 29.5 0 5
      vertex 0 29.5 5
    endloop
  endfacet
  facet normal -1 0 0
    outer loop
      vertex 0 10 0
      vertex 0 29.5 5
      vertex 0 29.5 0
    endloop
  endfacet
  facet normal -1 0 0
    outer loop
      vertex 0 10 0
      vertex 0 10 5
      vertex 0 29.5 5
    endloop
  endfacet
  facet normal -0.707107 -0.707107 0
    outer loop
      vertex 10 0 0
      vertex 0 10 5
      vertex 0 10 0
    endloop
  endfacet
  facet normal -0.707107 -0.707107 0
    outer loop
      vertex 10 0 0
      vertex 10 0 5
      vertex 0 10 5
    endloop
  endfacet
  facet normal 0 -1 0
    outer loop
      vertex 29.5 0 0
      vertex 10 0 5
      vertex 10 0 0
    endloop
  endfacet
  facet normal 0 -1 0
    outer loop
      vertex 29.5 0 0
      vertex 29.5 0 5
      vertex 10 0 5
    endloop
  endfacet
  facet normal 0.707107 0.707107 0
    outer loop
      vertex 0 29.5 0
      vertex 29.5 0 5
      vertex 29.5 0 0
    endloop
  endfacet
  facet normal 0.707107 0.707107 -0
    outer loop
      vertex 0 29.5 0
      vertex 0 29.5 5
      vertex 29.5 0 5
    endloop
  endfacet
endsolid OpenSCAD_Model
